<svg width="18" height="18" fill="none" xmlns="http://www.w3.org/2000/svg"><path fill-rule="evenodd" clip-rule="evenodd" d="M17.534 8.988a8.535 8.535 0 01-.672 3.317 8.6 8.6 0 01-3.09 3.749 8.627 8.627 0 01-1.45.785 8.576 8.576 0 01-6.644 0 8.635 8.635 0 01-1.45-.785 8.604 8.604 0 01-3.09-3.749 8.492 8.492 0 01-.499-5.032 8.473 8.473 0 011.285-3.05 8.603 8.603 0 012.304-2.3A8.45 8.45 0 017.28.64a8.599 8.599 0 015.04.496 8.565 8.565 0 014.54 4.535 8.528 8.528 0 01.672 3.317zM5.89 2.406a7.288 7.288 0 00-4.022 5.082c.193.002 3.23.04 6.728-.888A43.813 43.813 0 005.89 2.406zM9.2 7.72C5.448 8.842 1.847 8.761 1.718 8.756c-.002.078-.006.154-.006.232a7.24 7.24 0 001.867 4.863c-.002-.004 1.992-3.537 5.925-4.807.095-.032.192-.06.287-.087a24.597 24.597 0 00-.59-1.237zm4.613-4.193A7.258 7.258 0 009 1.712c-.592 0-1.167.071-1.717.204.109.146 1.478 1.96 2.724 4.245 2.75-1.03 3.787-2.608 3.806-2.634zm-3.525 6.635l-.048.016c-4.3 1.497-5.704 4.513-5.72 4.546A7.279 7.279 0 009 16.265a7.26 7.26 0 002.845-.576c-.108-.636-.531-2.864-1.557-5.526zm2.784 4.861a7.278 7.278 0 003.123-4.881c-.15-.049-2.19-.693-4.541-.317.956 2.623 1.344 4.76 1.418 5.198zm-2.504-7.778a22.948 22.948 0 01.642 1.432c2.503-.315 4.97.215 5.075.236a7.233 7.233 0 00-1.657-4.547c-.014.02-1.183 1.705-4.06 2.879z" fill="#fff"/></svg>