<svg width="18" height="18" fill="none" xmlns="http://www.w3.org/2000/svg"><path fill-rule="evenodd" clip-rule="evenodd" d="M9 .467c-2.317 0-2.607.01-3.518.051-.908.042-1.528.186-2.07.397a4.179 4.179 0 00-1.512.984A4.19 4.19 0 00.915 3.41C.703 3.953.559 4.573.518 5.481c-.04.91-.051 1.202-.051 3.52 0 2.317.01 2.607.051 3.517.042.908.186 1.528.397 2.071.218.561.51 1.037.984 1.512.474.474.95.767 1.511.985.543.21 1.163.355 2.072.396.91.041 1.2.052 3.518.052 2.318 0 2.607-.01 3.518-.052.908-.041 1.529-.185 2.072-.396a4.175 4.175 0 001.51-.985 4.19 4.19 0 00.985-1.512c.21-.543.354-1.163.397-2.07.04-.911.052-1.201.052-3.519 0-2.317-.011-2.608-.052-3.518-.043-.909-.187-1.529-.396-2.072A4.19 4.19 0 0016.1 1.9a4.17 4.17 0 00-1.512-.984C14.045.704 13.425.56 12.517.518c-.91-.041-1.2-.051-3.519-.051h.003zm-.765 1.538h.766c2.278 0 2.548.008 3.448.049.832.038 1.284.177 1.585.294.398.154.682.34.98.638.299.298.484.583.639.981.117.3.256.752.294 1.584.04.9.05 1.17.05 3.447 0 2.278-.01 2.548-.05 3.447-.038.832-.177 1.284-.294 1.584-.155.399-.34.682-.639.98a2.64 2.64 0 01-.98.639c-.301.117-.753.256-1.585.294-.9.04-1.17.05-3.448.05-2.279 0-2.549-.01-3.448-.05-.832-.038-1.284-.178-1.585-.294a2.642 2.642 0 01-.981-.639 2.645 2.645 0 01-.639-.98c-.117-.3-.256-.752-.294-1.584-.04-.9-.049-1.17-.049-3.449s.008-2.547.05-3.447c.037-.832.176-1.284.293-1.584.155-.399.34-.683.639-.982a2.65 2.65 0 01.981-.638c.3-.118.753-.256 1.585-.295.787-.035 1.092-.046 2.682-.048v.003zm5.321 1.416a1.024 1.024 0 100 2.048 1.024 1.024 0 000-2.048zM9.001 4.618a4.382 4.382 0 100 8.765 4.382 4.382 0 000-8.765zm0 1.538a2.844 2.844 0 110 5.689 2.844 2.844 0 010-5.69z" fill="#fff"/></svg>