<svg width="16" height="14" fill="none" xmlns="http://www.w3.org/2000/svg"><path fill-rule="evenodd" clip-rule="evenodd" d="M7.52 4.005l.034.553-.56-.068c-2.036-.26-3.816-1.14-5.326-2.62l-.74-.735-.19.542c-.402 1.209-.145 2.486.695 3.344.447.475.346.543-.426.26-.268-.09-.503-.158-.526-.124-.078.08.19 1.107.403 1.514.291.565.884 1.119 1.533 1.446l.549.26-.65.011c-.626 0-.648.012-.581.25.224.733 1.108 1.513 2.093 1.852l.693.237-.604.362a6.302 6.302 0 01-3 .836c-.503.011-.917.056-.917.09 0 .113 1.365.746 2.16.995 2.384.734 5.215.418 7.342-.836 1.51-.893 3.021-2.667 3.727-4.384.38-.916.76-2.588.76-3.39 0-.52.034-.587.66-1.209.37-.361.717-.757.784-.87.112-.215.101-.215-.47-.022-.951.338-1.085.293-.615-.215.347-.362.76-1.017.76-1.21 0-.033-.167.023-.357.125-.202.113-.65.283-.985.384l-.605.192-.548-.372c-.302-.204-.727-.43-.951-.498C11.09.547 10.218.57 9.703.751 8.304 1.259 7.42 2.57 7.521 4.005z" fill="#fff"/></svg>